<svg id="aeea51da-b0d9-44f6-92d1-301e98af9ee5" data-name="Layer 1" xmlns="http://www.w3.org/2000/svg" width="865.76" height="682.89" viewBox="0 0 865.76 682.89"><path d="M543,637.57s-10,6.67-13.33,8.33-17.48,4.16-17.91,7.91,7.08,5.83,15.42,5.83,18.31,0,23.31.84,8.34,2.49,10.42-2.92S559.67,638,559.67,638,551,641.33,543,637.57Z" fill="#0077ff"/><g id="b4705105-0e95-4db9-a2ef-8e4e1347f45b" data-name="freepik--background-simple--inject-7"><path d="M305,605.65h13.32c11.29-.23,21.71-.95,31.44-2.07V391.43H305Z" fill="#e6e7e8"/><path d="M387.81,596.36a221.77,221.77,0,0,0,44.75-17.42V391.34H387.81Z" fill="#e6e7e8"/><path d="M470.59,555.91c14.86-9.61,28.57-18,44.77-22.14V391.43H470.59Z" fill="#e6e7e8"/><path d="M553.4,531.78c16,1.86,30.61,6.11,44.76,10.7v-151H553.4Z" fill="#e6e7e8"/><path d="M92.91,459.06q3.9,10.68,8.45,20.88V391.43H77.72A281.51,281.51,0,0,0,92.91,459.06Z" fill="#e6e7e8"/><path d="M139.4,540.25a179.71,179.71,0,0,0,44.77,36.38V391.43H139.4Z" fill="#e6e7e8"/><path d="M222.21,593.29A250.8,250.8,0,0,0,267,603.05V391.43H222.21Z" fill="#e6e7e8"/><path d="M636.2,554A114.81,114.81,0,0,0,681,556.11V391.43H636.2Z" fill="#e6e7e8"/><path d="M744.89,142.47A361.77,361.77,0,0,0,698.7,71.63C622.64-18.44,469,9.65,409.9,56.14s-62,111.29-112.71,128.16S207,168.81,139.4,209.67c-45.76,27.66-65,93.39-63.15,159.2H788.3c.35-5.37.65-10.63.86-15.72A427.79,427.79,0,0,0,744.89,142.47ZM143.23,279.34l-8.53-4.48-8.52,4.48,1.63-9.49-6.91-6.72,9.53-1.4,4.27-8.63,4.28,8.63,9.52,1.4-6.9,6.72Zm194.64,18.74-12.3,16-5.13-19.51-18.89-6.78,16.89-10.88.61-20.06L334.6,269.5l19.28-5.61-7.27,18.72,11.3,16.59ZM433,174.21l-1.59,11.59-8.23-8.32-11.52,2L417,169.16l-5.57-10.33L423,160.69l8.12-8.43L433,163.81l10.52,5.13Zm43.5,178.66-9.28-4.9-9.29,4.9,1.86-10.38-7.56-7.43,10.44-1.52,4.66-9.44,4.66,9.44,10.44,1.52-7.56,7.43ZM605.79,47.72l-4.88-2.56L596,47.72l.93-5.44L593,38.44l5.46-.8,2.43-4.94,2.43,4.94,5.46.8-3.93,3.84ZM750.67,305l-12.31-6.48L726,305l2.36-13.75-10-9.75,13.8-2,6.19-12.5,6.18,12.5,13.8,2-10,9.75Z" fill="#e6e7e8"/><path d="M719,542.94c2.14-1.11,4.29-2.3,6.48-3.58,16.63-9.68,29-27.08,38.28-48.46V391.43H719Z" fill="#e6e7e8"/><g opacity="0.7"><path d="M305,605.65h13.32c11.29-.23,21.71-.95,31.44-2.07V391.43H305Z" fill="#e6e7e8"/><path d="M387.81,596.36a221.77,221.77,0,0,0,44.75-17.42V391.34H387.81Z" fill="#e6e7e8"/><path d="M470.59,555.91c14.86-9.61,28.57-18,44.77-22.14V391.43H470.59Z" fill="#e6e7e8"/><path d="M553.4,531.78c16,1.86,30.61,6.11,44.76,10.7v-151H553.4Z" fill="#e6e7e8"/><path d="M92.91,459.06q3.9,10.68,8.45,20.88V391.43H77.72A281.51,281.51,0,0,0,92.91,459.06Z" fill="#e6e7e8"/><path d="M139.4,540.25a179.71,179.71,0,0,0,44.77,36.38V391.43H139.4Z" fill="#e6e7e8"/><path d="M222.21,593.29A250.8,250.8,0,0,0,267,603.05V391.43H222.21Z" fill="#e6e7e8"/><path d="M636.2,554A114.81,114.81,0,0,0,681,556.11V391.43H636.2Z" fill="#e6e7e8"/><path d="M744.89,142.47A361.77,361.77,0,0,0,698.7,71.63C622.64-18.44,469,9.65,409.9,56.14s-62,111.29-112.71,128.16S207,168.81,139.4,209.67c-45.76,27.66-65,93.39-63.15,159.2H788.3c.35-5.37.65-10.63.86-15.72A427.79,427.79,0,0,0,744.89,142.47ZM143.23,279.34l-8.53-4.48-8.52,4.48,1.63-9.49-6.91-6.72,9.53-1.4,4.27-8.63,4.28,8.63,9.52,1.4-6.9,6.72Zm194.64,18.74-12.3,16-5.13-19.51-18.89-6.78,16.89-10.88.61-20.06L334.6,269.5l19.28-5.61-7.27,18.72,11.3,16.59ZM433,174.21l-1.59,11.59-8.23-8.32-11.52,2L417,169.16l-5.57-10.33L423,160.69l8.12-8.43L433,163.81l10.52,5.13Zm43.5,178.66-9.28-4.9-9.29,4.9,1.86-10.38-7.56-7.43,10.44-1.52,4.66-9.44,4.66,9.44,10.44,1.52-7.56,7.43ZM605.79,47.72l-4.88-2.56L596,47.72l.93-5.44L593,38.44l5.46-.8,2.43-4.94,2.43,4.94,5.46.8-3.93,3.84ZM750.67,305l-12.31-6.48L726,305l2.36-13.75-10-9.75,13.8-2,6.19-12.5,6.18,12.5,13.8,2-10,9.75Z" fill="#e6e7e8"/><path d="M719,542.94c2.14-1.11,4.29-2.3,6.48-3.58,16.63-9.68,29-27.08,38.28-48.46V391.43H719Z" fill="#e6e7e8"/></g></g><path d="M209.61,295.46l-1.39,131.77s-5.57,2.8-21,2.8-21-2.8-21-2.8L171.74,374s-19.59-4.2-19.59-9.77,43.44-159.74,43.44-159.74S218,243.59,209.61,295.46Z" fill="#bcbec0"/><line x1="171.76" y1="373.94" x2="189.92" y2="289.98" fill="none" stroke="#a7a9ac" stroke-miterlimit="10"/><path d="M178.78,204.34S204,238,206.81,252s2.8,43.46,2.8,43.46A229.86,229.86,0,0,0,225,231c2.8-35.05-25.22-53.27-25.22-53.27Z" fill="#bcbec0"/><path d="M652.77,295.46l1.39,131.77s5.57,2.8,21,2.8,21-2.8,21-2.8L690.64,374s19.59-4.2,19.59-9.77-43.46-159.74-43.46-159.74S644.35,243.59,652.77,295.46Z" fill="#bcbec0"/><line x1="690.6" y1="373.94" x2="673.76" y2="276.31" fill="none" stroke="#a7a9ac" stroke-miterlimit="10"/><path d="M683.6,204.34S658.36,238,655.55,252s-2.78,43.44-2.78,43.44A229.46,229.46,0,0,1,637.33,231c-2.8-35.05,25.24-53.27,25.24-53.27Z" fill="#bcbec0"/><path d="M683.4,204.34a495.67,495.67,0,0,0-504.62,0l-44.24-74.82c-3.18-5.31-.19-13,6.78-16.82a593.78,593.78,0,0,1,579.5,0c6.95,3.88,10,11.51,6.78,16.82Z" fill="#bcbec0"/><text transform="translate(221.87 155.58) rotate(-17.76)" font-size="81.4" fill="#a7a9ac" font-family="NunitoSans-ExtraBold, Nunito Sans" font-weight="800">W</text><text transform="translate(303.77 130.18) rotate(-12.09)" font-size="81.58" fill="#a7a9ac" font-family="NunitoSans-ExtraBold, Nunito Sans" font-weight="800">E</text><text transform="translate(351.27 119.93) rotate(-7.48)" font-size="81.28" fill="#a7a9ac" font-family="NunitoSans-ExtraBold, Nunito Sans" font-weight="800">L</text><text transform="matrix(1, -0.04, 0.04, 1, 396.78, 113.54)" font-size="81.4" fill="#a7a9ac" font-family="NunitoSans-ExtraBold, Nunito Sans" font-weight="800">C</text><text transform="translate(450.75 111.21) rotate(5.14)" font-size="81.73" fill="#a7a9ac" font-family="NunitoSans-ExtraBold, Nunito Sans" font-weight="800">O</text><text transform="matrix(0.97, 0.23, -0.23, 0.97, 513.61, 116.47)" font-size="81.4" fill="#a7a9ac" font-family="NunitoSans-ExtraBold, Nunito Sans" font-weight="800">M</text><text transform="matrix(0.93, 0.36, -0.36, 0.93, 589.23, 135.55)" font-size="81.4" fill="#a7a9ac" font-family="NunitoSans-ExtraBold, Nunito Sans" font-weight="800">E</text><path d="M683.4,204.34a495.67,495.67,0,0,0-504.62,0l-44.24-74.82c-3.18-5.31-.19-13,6.78-16.82a593.78,593.78,0,0,1,579.5,0c6.95,3.88,10,11.51,6.78,16.82Z" fill="none" stroke="#a7a9ac" stroke-miterlimit="10"/><path d="M592,291s-23.63-17.45-35-26-30.79-33.06-35.66-43.83a169.09,169.09,0,0,0-8.1-16.22s2.25-10.83,2.25-13.5-2.17-6.21-3.55-8.47c-.69-1.13-5.57-7.62-5.57-2.68,0,3.87,2.32,5.8,2.32,8.12h0a19,19,0,0,1-7.43-7.43c-2.71-5-3.86-7-5.42-5.79-2.77,2.08.78,7.43.78,7.43s-.78-7.43-4.65-6.21c-2.22.67.78,7,2.33,9.68s-.78-1.86-.39,2.71c.27,3.4,4.16,11.76,7.74,15.86,1.3,1.51,4.33,1,4.65,1.56,1.15,1.86,13.54,30.58,22,44.9s13.56,18.57,20.53,25.54,16.25,19,24.37,24.75,12.38,3.5,17-.39S595.58,294.94,592,291Z" fill="#f9b499"/><path d="M500,201.57a66.34,66.34,0,0,1-7-10.85c-1.54-3.86-.37-12.37,1.95-10.82S496.54,190,496.54,190l4.65,5.41" fill="#f9b499"/><path d="M597,242.75s-11.87-4.33-9.71-19.45,15.12-7.56,15.12-7.56-13-17.29,13.5-21.06,45.93,20,52.42,46.44-34.59,29.16-28.64,49.16S668.82,333,665,360.51s-41.59,42.72-58.88,28.08-24.32-37.26-14.53-57.84,15.12-44.83,17.81-55.72S597,242.75,597,242.75Z" fill="#363455"/><path d="M639.45,263c-16.25-6.5-24.61-33-24.61-47.83s20.9-7.43,20.9-7.43-20.44,3.72-10.22,23.68,28.32,26,37.61,20" fill="none" stroke="#fff" stroke-linecap="round" stroke-linejoin="round" stroke-width="0.25"/><path d="M636.2,277.35S621.8,282,626,300.11,662.2,341,652.92,364.19s-25.54,32.5-45,25.53" fill="none" stroke="#fff" stroke-linecap="round" stroke-linejoin="round" stroke-width="0.25"/><path d="M629.23,281.07s-15.78,6.5-17.64,29.72S628.77,354,620,365.58s-23.22,10.21-27.86,3.25" fill="none" stroke="#fff" stroke-linecap="round" stroke-linejoin="round" stroke-width="0.25"/><path d="M593.18,268.14s1.62,5.94-3.71,15.14-8.1,11.33-8.1,11.33L600.82,293l12.42-22.7S594.26,271.93,593.18,268.14Z" fill="#f9b499"/><path d="M612.63,217.9s-18.91,17.29-22.7,32.41,1.08,24.85,8.12,24.85,21.6-5.94,21.6-5.94,4.33,3.71,8.64,1.63a7.65,7.65,0,0,0,4.32-6.48S602.9,235.19,612.63,217.9Z" fill="#f9b499"/><path d="M546.77,489.34S541,516.4,541,525.15s3.33,65.38,4.16,81.18A148.59,148.59,0,0,1,543,637.57s7.08,3.33,10,3.33,6.64-2.92,6.64-2.92,8.34-36.64,8.34-56.2,1.66-30.82,0-43.32-7.42-35.38-5.42-43.72S553,476.84,546.77,489.34Z" fill="#363455"/><path d="M546.77,489.34S541,516.4,541,525.15s3.33,65.38,4.16,81.18A148.59,148.59,0,0,1,543,637.57s7.08,3.33,10,3.33,6.64-2.92,6.64-2.92,8.34-36.64,8.34-56.2,1.66-30.82,0-43.32-7.42-35.38-5.42-43.72S553,476.84,546.77,489.34Z" opacity="0.2"/><path d="M546.71,369.76s-7.09,48-7.09,83.67,15.13,78.35,18.9,84.29,36.74,65.36,44.3,77.79a168.83,168.83,0,0,1,13.23,29.61,40.54,40.54,0,0,0,8.09,1.61c2.72,0,6.49-3.23,6.49-3.23S613.09,575,606.07,557.17s-21.54-31.87-25.31-38.82-5.41-34.05-5.41-34.05,22.14-35.1,26-54-6.55-40.1-10.88-47.53a145.56,145.56,0,0,1-7.56-15.66S560.23,380.51,546.71,369.76Z" fill="#363455"/><path d="M587.78,350.26s13.5-41.59,16.71-51.32-1.63-13.51-16.21-11.89-40,13-41,25.39S551,331.89,551,337.83s-8.55,31.93-2.05,37.28,27,3.71,33-3.72S587.78,350.26,587.78,350.26Z" fill="#0077ff"/><path d="M592,291a28.67,28.67,0,0,1-4.72,19.32c-6.48,10.25-21.06,6.48-20-4.86S582.08,284.69,592,291Z" fill="#f9b499"/><path d="M582.74,307.09A12,12,0,0,0,592,291a6.89,6.89,0,0,0-5.26-4.49c-9.28-1.62-49.7,1.62-60,.54s-49.15-24.85-59.44-34-14-14-14-17.83-2.71-12.43-4.87-15.12-5.94-8.12-5.94-8.12-3.71,0-3.23,2.18a46.87,46.87,0,0,0,3.23,7s-10.81-6.48-13.5-9.29a3.31,3.31,0,0,0-4.62-.74l-.25.2,5.94,6.48s-.53,4.33,3.72,11.35a50.17,50.17,0,0,0,11.89,12.43S467.29,267,483.5,281s31.32,22.7,44.84,24.85C540.27,307.87,558.88,311.45,582.74,307.09Z" fill="#f9b499"/><path d="M616.12,645.12s-8.54,9.12-14.38,12.85-13.33,6.26-12.07,9.58,16.72,2.92,24.15,2.49,22.47-7.43,25-9.15-8.1-17.39-8.1-17.39S622.58,648.07,616.12,645.12Z" fill="#0077ff"/><path d="M613.91,670c7.43-.41,22.48-7.43,25-9.15.69-.47.36-2-.46-4a118.51,118.51,0,0,1-26.6,9.44c-12.18,2.6-19.09,1.37-22.2.39a2.44,2.44,0,0,0,.13.85C590.92,670.88,606.31,670.47,613.91,670Z" fill="#363455"/><path d="M560.94,657.65a11.65,11.65,0,0,0,.61-3.41c-3.31,2.67-5.7,1.41-11,1.74-6.67.43-9.16.43-22.9.43a42.71,42.71,0,0,1-15.79-2.62.21.21,0,0,1,0,.11c-.41,3.72,7.08,5.83,15.41,5.83s18.32,0,23.32.84S558.86,663,560.94,657.65Z" fill="#363455"/></svg>